<?xml version="1.0" encoding="utf-8"?>
<!-- Generator: Adobe Illustrator 25.2.3, SVG Export Plug-In . SVG Version: 6.00 Build 0)  -->
<svg version="1.1" xmlns="http://www.w3.org/2000/svg" xmlns:xlink="http://www.w3.org/1999/xlink" x="0px" y="0px"
	 viewBox="0 0 1133.9 148.9" enable-background="new 0 0 1133.9 148.9" xml:space="preserve">
<g id="Layer_2" display="none">
	<rect display="inline" width="1133.9" height="148.9"/>
</g>
<g id="Layer_1">
	<g>
		<path fill="#FFFFFF" d="M111.5,140.3L22.1,59.6l6.9,3.8l0.5,72.1H5.9V12.9h1l87.5,80.5l-5.1-2.2l-0.5-73.6h23.4v122.8H111.5z"/>
		<path fill="#FFFFFF" d="M137.9,17.6h73.7V40h-50.5v26.8h43.8v22.4h-43.8v46.3h-23.2V17.6z"/>
		<path fill="#FFFFFF" d="M226,17.6h79.5V40h-28.7v95.5h-23.2V40H226V17.6z"/>
		<path fill="#FFFFFF" d="M473.2,125.8c-1.3,1.1-3.7,2.5-7.1,4.3c-3.5,1.8-7.7,3.4-12.7,4.8c-5,1.4-10.6,2-16.7,1.9
			c-9.3-0.2-17.6-1.9-24.9-5c-7.3-3.2-13.5-7.5-18.6-12.9c-5.1-5.4-8.9-11.7-11.6-18.8c-2.7-7.1-4-14.6-4-22.6
			c0-9,1.4-17.2,4.1-24.7c2.7-7.5,6.6-13.9,11.7-19.4c5.1-5.5,11.1-9.7,18.2-12.7c7.1-3,14.9-4.5,23.4-4.5c7.9,0,14.9,1.1,21,3.2
			c6.1,2.1,11.1,4.4,14.9,6.9l-9.1,22c-2.7-2-6.2-4.1-10.7-6.3c-4.4-2.2-9.5-3.3-15.3-3.3c-4.5,0-8.8,0.9-12.9,2.8
			c-4.1,1.9-7.7,4.5-10.9,7.9c-3.2,3.4-5.6,7.4-7.5,11.9c-1.8,4.5-2.7,9.5-2.7,14.8c0,5.7,0.8,10.8,2.5,15.5c1.7,4.7,4,8.7,7.1,12.1
			c3.1,3.4,6.8,6,11.1,7.8c4.3,1.8,9.2,2.7,14.7,2.7c6.3,0,11.7-1,16.2-3c4.5-2,7.9-4.2,10.3-6.4L473.2,125.8z"/>
		<path fill="#569643" d="M483.2,135.5l53.2-122.6h1.3l53.2,122.6H564l-34-86.2l16.8-11.5l-40.7,97.8H483.2z"/>
		<path fill="#FFFFFF" d="M590.4,17.6h79.5V40h-28.7v95.5H618V40h-27.6V17.6z"/>
		<path fill="#FFFFFF" d="M776.8,125.8c-1.3,1.1-3.7,2.5-7.1,4.3c-3.5,1.8-7.7,3.4-12.7,4.8c-5,1.4-10.6,2-16.7,1.9
			c-9.3-0.2-17.6-1.9-24.9-5c-7.3-3.2-13.5-7.5-18.6-12.9c-5.1-5.4-8.9-11.7-11.6-18.8c-2.7-7.1-4-14.6-4-22.6
			c0-9,1.4-17.2,4.1-24.7c2.7-7.5,6.6-13.9,11.7-19.4c5.1-5.5,11.1-9.7,18.2-12.7c7.1-3,14.9-4.5,23.4-4.5c7.9,0,14.9,1.1,21,3.2
			c6.1,2.1,11.1,4.4,14.9,6.9l-9.1,22c-2.7-2-6.2-4.1-10.7-6.3c-4.4-2.2-9.5-3.3-15.3-3.3c-4.5,0-8.8,0.9-12.9,2.8
			c-4.1,1.9-7.7,4.5-10.9,7.9c-3.2,3.4-5.6,7.4-7.5,11.9c-1.8,4.5-2.7,9.5-2.7,14.8c0,5.7,0.8,10.8,2.5,15.5c1.7,4.7,4,8.7,7.1,12.1
			c3.1,3.4,6.8,6,11.1,7.8c4.3,1.8,9.2,2.7,14.7,2.7c6.3,0,11.7-1,16.2-3c4.5-2,7.9-4.2,10.3-6.4L776.8,125.8z"/>
		<path fill="#FFFFFF" d="M899.2,17.6v118H876V87.6h-52.7v47.9H800v-118h23.2v47.6H876V17.6H899.2z"/>
		<path fill="#FFFFFF" d="M929.7,17.6h80.5V40h-57.2v25.2h50.6v22.4h-50.6v25.5h59.5v22.4h-82.7V17.6z"/>
		<path fill="#FFFFFF" d="M1072.1,17.6c7.4,0,13.9,0.9,19.7,2.8c5.8,1.9,10.6,4.5,14.5,8c3.9,3.5,6.9,7.6,8.9,12.5
			c2,4.9,3,10.3,3,16.4c0,4.8-0.7,9.6-2.2,14.4c-1.4,4.8-3.8,9.2-7.1,13.1c-3.3,4-7.6,7.1-12.9,9.5c-5.3,2.4-12,3.6-19.9,3.6h-16.7
			v37.5h-23.2v-118H1072.1z M1076.2,75.6c3.5,0,6.5-0.6,8.8-1.8c2.3-1.2,4.2-2.7,5.5-4.5c1.3-1.8,2.3-3.7,2.9-5.7
			c0.6-2,0.9-3.8,0.9-5.5c0-1.3-0.2-2.9-0.6-4.9c-0.4-2-1.1-4-2.3-6c-1.2-2-3-3.7-5.4-5.1c-2.4-1.4-5.6-2.1-9.7-2.1h-16.7v35.6
			H1076.2z M1098,90l29.2,45.5H1100l-29.8-44.9L1098,90z"/>
	</g>
</g>
</svg>
